<svg width="100" height="29" viewBox="0 0 100 29" fill="none" xmlns="http://www.w3.org/2000/svg">
<path d="M9.44465 20.0919C14.6609 20.0919 18.8896 15.8633 18.8896 10.647C18.8896 10.0558 18.8353 9.47731 18.7314 8.91622C18.1703 8.81231 17.5918 8.758 17.0006 8.758C11.7843 8.758 7.55566 12.9866 7.55566 18.2029C7.55566 18.7941 7.60998 19.3726 7.71389 19.9337C8.27498 20.0376 8.85347 20.0919 9.44465 20.0919Z" fill="#475467"/>
<path opacity="0.8" fill-rule="evenodd" clip-rule="evenodd" d="M7.71418 19.9337C3.32447 19.1208 0 15.2721 0 10.647C0 5.43073 4.22864 1.20209 9.44494 1.20209C14.0701 1.20209 17.9187 4.52655 18.7317 8.91627C18.1706 8.81236 17.5921 8.75804 17.0009 8.75804C11.7846 8.75804 7.55595 12.9867 7.55595 18.203C7.55595 18.7942 7.61027 19.3727 7.71418 19.9337Z" fill="#475467"/>
<path opacity="0.6" fill-rule="evenodd" clip-rule="evenodd" d="M9.44463 20.0919C14.6609 20.0919 18.8896 15.8633 18.8896 10.647C18.8896 10.0558 18.8353 9.47729 18.7313 8.9162C23.1211 9.72915 26.4455 13.5778 26.4455 18.2029C26.4455 23.4192 22.2169 27.6479 17.0006 27.6479C12.3755 27.6479 8.52682 24.3234 7.71387 19.9337C8.27496 20.0376 8.85345 20.0919 9.44463 20.0919Z" fill="#475467"/>
<path d="M40.6004 20.5796C43.828 20.5796 46.154 18.7585 46.3884 16.0538H43.6837C43.4673 17.3521 42.2232 18.2356 40.6004 18.2356C38.5628 18.2356 36.9941 16.8291 36.9941 14.1245C36.9941 11.4198 38.5628 9.9953 40.6004 9.9953C42.1871 9.9953 43.4313 10.8788 43.6116 12.1951H46.4425C46.0999 9.4724 43.7739 7.66927 40.6004 7.66927C37.2285 7.66927 34.2714 9.86909 34.2714 14.1245C34.2714 18.3798 37.1744 20.5796 40.6004 20.5796Z" fill="#475467"/>
<path d="M51.4079 11.2034C48.9195 11.2034 47.441 12.6639 47.3328 14.4851H49.5687C49.6047 13.7278 50.1637 13.0426 51.2636 13.0426C52.2914 13.0426 52.8864 13.5655 52.8864 14.3228C52.8864 14.7015 52.652 14.99 52.2012 14.99H50.6686C48.6851 14.99 47.3508 16.0718 47.3508 17.8569C47.3508 19.4076 48.5589 20.5796 50.326 20.5796C51.5701 20.5796 52.5799 20.0207 52.8864 19.1732V20.4354H55.3747V14.5933C55.3747 12.5377 53.6978 11.2034 51.4079 11.2034ZM50.9571 18.7585C50.2539 18.7585 49.749 18.3438 49.749 17.7487C49.749 17.0455 50.2899 16.5767 51.0472 16.5767H52.8864V16.7029C52.8864 17.8569 52.1832 18.7585 50.9571 18.7585Z" fill="#475467"/>
<path d="M57.0591 24.1138H59.5654V19.624C60.0523 20.2371 60.9358 20.5796 61.9636 20.5796C64.5781 20.5796 66.3452 18.7224 66.3452 15.8915C66.3452 13.0606 64.7224 11.2034 62.18 11.2034C61.0079 11.2034 60.1064 11.6361 59.5654 12.3394V11.3476H57.0591V24.1138ZM61.6571 18.4159C60.3047 18.4159 59.4212 17.4061 59.4212 15.8915C59.4212 14.3589 60.3047 13.3491 61.6571 13.3491C62.9734 13.3491 63.8749 14.3589 63.8749 15.8915C63.8749 17.4061 62.9734 18.4159 61.6571 18.4159Z" fill="#475467"/>
<path d="M70.7583 20.5796C72.886 20.5796 74.2925 19.4437 74.2925 17.7127C74.2925 13.6016 69.3158 15.7112 69.3158 13.854C69.3158 13.277 69.8027 12.9705 70.5059 12.9705C71.1911 12.9705 71.8943 13.3852 72.0025 14.1605H74.1843C74.0941 12.3754 72.6156 11.2034 70.4338 11.2034C68.5766 11.2034 67.1882 12.3394 67.1882 13.9441C67.1882 17.7668 72.0746 15.9456 72.0746 17.8028C72.0746 18.3077 71.5337 18.6864 70.7583 18.6864C69.8207 18.6864 69.1896 18.1815 69.0995 17.3701H66.9357C67.0259 19.3355 68.5405 20.5796 70.7583 20.5796Z" fill="#475467"/>
<path d="M84.1918 11.3476H81.6674V16.3243C81.6674 17.4783 80.8921 18.3438 79.7921 18.3438C78.7644 18.3438 78.0431 17.5504 78.0431 16.4505V11.3476H75.5368V17.0095C75.5368 19.0831 76.8711 20.5796 78.9086 20.5796C80.1528 20.5796 81.1625 20.0387 81.6674 19.1732V20.4354H84.1918V11.3476Z" fill="#475467"/>
<path d="M85.995 20.4354H88.5014V7.3988H85.995V20.4354Z" fill="#475467"/>
<path d="M96.3781 17.3521C96.1797 18.1274 95.5126 18.5241 94.5028 18.5241C93.2406 18.5241 92.4292 17.7307 92.2489 16.4505H98.7762C98.7943 16.2521 98.8123 15.9817 98.8123 15.6391C98.8123 13.5655 97.5321 11.2034 94.3225 11.2034C91.2392 11.2034 89.8327 13.5655 89.8327 15.8735C89.8327 18.1635 91.4195 20.5796 94.5028 20.5796C96.7387 20.5796 98.4697 19.3175 98.8303 17.3521H96.3781ZM94.3225 13.0426C95.5306 13.0426 96.2338 13.854 96.306 14.8637H92.285C92.5014 13.6016 93.1865 13.0426 94.3225 13.0426Z" fill="#475467"/>
</svg>
