<svg width="107" height="29" viewBox="0 0 107 29" fill="none" xmlns="http://www.w3.org/2000/svg">
<circle cx="12.0225" cy="14.427" r="10.2191" stroke="#475467" stroke-width="3.60674"/>
<path d="M39.7847 12.2709C39.7847 12.8992 39.6333 13.4883 39.3303 14.0382C39.0385 14.588 38.5729 15.0312 37.9333 15.3678C37.3049 15.7045 36.5082 15.8728 35.5432 15.8728H33.5739V20.3836H31.2175V8.63527H35.5432C36.4521 8.63527 37.2264 8.79236 37.866 9.10655C38.5056 9.42073 38.9824 9.85274 39.2966 10.4026C39.622 10.9524 39.7847 11.5752 39.7847 12.2709ZM35.4422 13.9708C36.093 13.9708 36.5755 13.825 36.8897 13.5332C37.2039 13.2303 37.361 12.8095 37.361 12.2709C37.361 11.1263 36.7214 10.5541 35.4422 10.5541H33.5739V13.9708H35.4422Z" fill="#475467"/>
<path d="M44.925 20.5351C44.0274 20.5351 43.2195 20.3387 42.5013 19.946C41.7832 19.5421 41.2165 18.9754 40.8013 18.246C40.3974 17.5167 40.1954 16.6751 40.1954 15.7213C40.1954 14.7675 40.403 13.926 40.8182 13.1966C41.2446 12.4672 41.8224 11.9062 42.5518 11.5134C43.2812 11.1095 44.0947 10.9075 44.9924 10.9075C45.89 10.9075 46.7036 11.1095 47.4329 11.5134C48.1623 11.9062 48.7346 12.4672 49.1497 13.1966C49.5761 13.926 49.7893 14.7675 49.7893 15.7213C49.7893 16.6751 49.5705 17.5167 49.1329 18.246C48.7065 18.9754 48.123 19.5421 47.3824 19.946C46.6531 20.3387 45.8339 20.5351 44.925 20.5351ZM44.925 18.4817C45.3514 18.4817 45.7498 18.3807 46.1201 18.1787C46.5016 17.9655 46.8046 17.6513 47.029 17.2361C47.2534 16.821 47.3656 16.316 47.3656 15.7213C47.3656 14.8349 47.13 14.156 46.6587 13.6847C46.1986 13.2022 45.632 12.961 44.9587 12.961C44.2854 12.961 43.7188 13.2022 43.2587 13.6847C42.8099 14.156 42.5855 14.8349 42.5855 15.7213C42.5855 16.6078 42.8043 17.2922 43.2419 17.7747C43.6907 18.246 44.2518 18.4817 44.925 18.4817Z" fill="#475467"/>
<path d="M53.201 7.92834V20.3836H50.8446V7.92834H53.201Z" fill="#475467"/>
<path d="M63.7765 11.059L58.0034 24.7935H55.4955L57.5152 20.148L53.7787 11.059H56.4212L58.8281 17.5728L61.2687 11.059H63.7765Z" fill="#475467"/>
<path d="M75.9536 10.9243C77.0981 10.9243 78.0182 11.2778 78.7139 11.9847C79.4209 12.6804 79.7743 13.6567 79.7743 14.9134V20.3836H77.4179V15.2332C77.4179 14.5038 77.2328 13.9484 76.8625 13.5669C76.4922 13.1741 75.9872 12.9778 75.3476 12.9778C74.708 12.9778 74.1975 13.1741 73.816 13.5669C73.4457 13.9484 73.2605 14.5038 73.2605 15.2332V20.3836H70.9041V15.2332C70.9041 14.5038 70.719 13.9484 70.3487 13.5669C69.9784 13.1741 69.4735 12.9778 68.8339 12.9778C68.1831 12.9778 67.6669 13.1741 67.2854 13.5669C66.9151 13.9484 66.7299 14.5038 66.7299 15.2332V20.3836H64.3735V11.059H66.7299V12.1867C67.0329 11.794 67.42 11.4854 67.8913 11.261C68.3738 11.0366 68.9012 10.9243 69.4735 10.9243C70.2028 10.9243 70.8536 11.0814 71.4259 11.3956C71.9982 11.6986 72.4414 12.1362 72.7556 12.7085C73.0586 12.1699 73.4962 11.7379 74.0685 11.4125C74.6519 11.087 75.2803 10.9243 75.9536 10.9243Z" fill="#475467"/>
<path d="M80.7312 15.6876C80.7312 14.7451 80.9164 13.9091 81.2867 13.1798C81.6682 12.4504 82.1787 11.8893 82.8183 11.4966C83.4691 11.1039 84.1929 10.9075 84.9896 10.9075C85.6853 10.9075 86.2912 11.0478 86.8074 11.3283C87.3348 11.6088 87.7555 11.9623 88.0697 12.3887V11.059H90.443V20.3836H88.0697V19.0203C87.7668 19.4579 87.346 19.8226 86.8074 20.1143C86.28 20.3948 85.6684 20.5351 84.9727 20.5351C84.1873 20.5351 83.4691 20.3331 82.8183 19.9292C82.1787 19.5252 81.6682 18.9586 81.2867 18.2292C80.9164 17.4886 80.7312 16.6414 80.7312 15.6876ZM88.0697 15.7213C88.0697 15.149 87.9575 14.6609 87.7331 14.257C87.5087 13.8418 87.2057 13.5276 86.8242 13.3144C86.4427 13.09 86.0331 12.9778 85.5955 12.9778C85.1579 12.9778 84.7539 13.0844 84.3836 13.2976C84.0134 13.5108 83.7104 13.825 83.4747 14.2401C83.2503 14.6441 83.1381 15.1266 83.1381 15.6876C83.1381 16.2487 83.2503 16.7424 83.4747 17.1688C83.7104 17.584 84.0134 17.9038 84.3836 18.1282C84.7652 18.3526 85.1691 18.4648 85.5955 18.4648C86.0331 18.4648 86.4427 18.3582 86.8242 18.145C87.2057 17.9206 87.5087 17.6064 87.7331 17.2025C87.9575 16.7873 88.0697 16.2936 88.0697 15.7213Z" fill="#475467"/>
<path d="M94.8147 12.9946V17.5054C94.8147 17.8196 94.8876 18.0497 95.0335 18.1955C95.1906 18.3302 95.4487 18.3975 95.8077 18.3975H96.9018V20.3836H95.4206C93.4345 20.3836 92.4414 19.4186 92.4414 17.4886V12.9946H91.3306V11.059H92.4414V8.75309H94.8147V11.059H96.9018V12.9946H94.8147Z" fill="#475467"/>
<path d="M103.175 10.9243C103.882 10.9243 104.51 11.0814 105.06 11.3956C105.61 11.6986 106.036 12.153 106.339 12.759C106.653 13.3537 106.81 14.0718 106.81 14.9134V20.3836H104.454V15.2332C104.454 14.4926 104.269 13.926 103.899 13.5332C103.528 13.1293 103.023 12.9273 102.384 12.9273C101.733 12.9273 101.217 13.1293 100.835 13.5332C100.465 13.926 100.28 14.4926 100.28 15.2332V20.3836H97.9234V7.92834H100.28V12.2204C100.583 11.8164 100.987 11.5022 101.492 11.2778C101.997 11.0422 102.558 10.9243 103.175 10.9243Z" fill="#475467"/>
</svg>
