<svg width="102" height="29" viewBox="0 0 102 29" fill="none" xmlns="http://www.w3.org/2000/svg">
<rect y="11.54" width="5.76999" height="5.76999" fill="#475467"/>
<rect x="17.3096" y="17.3101" width="5.77" height="5.76999" transform="rotate(180 17.3096 17.3101)" fill="#475467"/>
<path opacity="0.4" d="M5.77051 11.54L11.5405 5.77002V11.54L5.77051 17.31V11.54Z" fill="#475467"/>
<path opacity="0.6" d="M11.54 17.31L5.76999 23.08L5.76999 17.31L11.54 11.54L11.54 17.31Z" fill="#475467"/>
<path opacity="0.8" d="M0 11.54L11.54 0V5.76999L5.76999 11.54H0Z" fill="#475467"/>
<path opacity="0.8" d="M17.3096 17.31L5.76958 28.85L5.76958 23.08L11.5396 17.31L17.3096 17.31Z" fill="#475467"/>
<path d="M29.8763 20.6038C28.9675 20.6038 28.0868 20.4747 27.2341 20.2167C26.3927 19.9587 25.7251 19.6165 25.2314 19.1901L25.9888 17.4904C26.4712 17.8718 27.0602 18.186 27.7558 18.4328C28.4626 18.6684 29.1695 18.7862 29.8763 18.7862C30.7514 18.7862 31.4021 18.646 31.8285 18.3655C32.266 18.085 32.4848 17.7148 32.4848 17.2548C32.4848 16.9182 32.3614 16.6433 32.1146 16.4301C31.879 16.2057 31.576 16.0318 31.2058 15.9084C30.8356 15.785 30.3307 15.6448 29.6912 15.4877C28.7936 15.2745 28.0644 15.0614 27.5034 14.8482C26.9536 14.635 26.4768 14.3041 26.0729 13.8553C25.6802 13.3953 25.4839 12.7782 25.4839 12.0041C25.4839 11.3533 25.6578 10.7643 26.0056 10.237C26.3646 9.69847 26.8975 9.27213 27.6044 8.95798C28.3224 8.64384 29.1975 8.48677 30.2297 8.48677C30.9478 8.48677 31.6546 8.57652 32.3502 8.75603C33.0458 8.93555 33.646 9.19359 34.1509 9.53018L33.4609 11.2299C32.9448 10.927 32.4063 10.697 31.8453 10.5399C31.2843 10.3829 30.7402 10.3043 30.2129 10.3043C29.349 10.3043 28.7039 10.4502 28.2775 10.7419C27.8624 11.0336 27.6548 11.4207 27.6548 11.9031C27.6548 12.2397 27.7726 12.5145 28.0083 12.7277C28.2551 12.9409 28.5636 13.1092 28.9339 13.2326C29.3041 13.356 29.809 13.4963 30.4485 13.6533C31.3236 13.8553 32.0416 14.0684 32.6026 14.2928C33.1636 14.506 33.6404 14.837 34.0331 15.2858C34.437 15.7345 34.6389 16.3404 34.6389 17.1033C34.6389 17.754 34.4594 18.3431 34.1004 18.8704C33.7526 19.3977 33.2197 19.8184 32.5016 20.1326C31.7836 20.4467 30.9085 20.6038 29.8763 20.6038Z" fill="#475467"/>
<path d="M36.6064 11.4487H38.71V20.4355H36.6064V11.4487ZM37.6666 9.96773C37.2852 9.96773 36.9654 9.84993 36.7074 9.61432C36.4493 9.36749 36.3203 9.06457 36.3203 8.70555C36.3203 8.34652 36.4493 8.04921 36.7074 7.8136C36.9654 7.56677 37.2852 7.44336 37.6666 7.44336C38.0481 7.44336 38.3678 7.56116 38.6259 7.79677C38.8839 8.02116 39.013 8.30726 39.013 8.65506C39.013 9.0253 38.8839 9.33944 38.6259 9.59749C38.3791 9.84432 38.0593 9.96773 37.6666 9.96773Z" fill="#475467"/>
<path d="M44.2479 20.5533C43.5186 20.5533 42.8062 20.4579 42.1106 20.2672C41.415 20.0765 40.8596 19.8352 40.4445 19.5435L41.2523 17.9448C41.6562 18.214 42.1386 18.4328 42.6996 18.6011C43.2718 18.7582 43.8328 18.8367 44.3825 18.8367C45.6391 18.8367 46.2674 18.5057 46.2674 17.8438C46.2674 17.5296 46.1047 17.3109 45.7793 17.1874C45.4652 17.064 44.9547 16.9462 44.2479 16.834C43.5074 16.7218 42.9015 16.5928 42.4303 16.447C41.9703 16.3011 41.5664 16.0487 41.2186 15.6897C40.882 15.3194 40.7137 14.8089 40.7137 14.1582C40.7137 13.3055 41.0672 12.6267 41.774 12.1219C42.492 11.6058 43.4569 11.3477 44.6686 11.3477C45.2857 11.3477 45.9027 11.4207 46.5198 11.5665C47.1369 11.7011 47.6418 11.8863 48.0344 12.1219L47.2266 13.7206C46.4637 13.2719 45.6054 13.0475 44.6518 13.0475C44.0347 13.0475 43.5635 13.1428 43.2381 13.3336C42.924 13.5131 42.7669 13.7543 42.7669 14.0572C42.7669 14.3938 42.9352 14.635 43.2718 14.7809C43.6196 14.9155 44.1525 15.0445 44.8706 15.1679C45.5886 15.2801 46.1776 15.4092 46.6376 15.555C47.0976 15.7009 47.4903 15.9477 47.8157 16.2955C48.1522 16.6433 48.3205 17.137 48.3205 17.7765C48.3205 18.6179 47.9559 19.2911 47.2266 19.796C46.4974 20.3008 45.5044 20.5533 44.2479 20.5533Z" fill="#475467"/>
<path d="M58.3824 11.4487L54.1751 21.1591C53.7824 22.1352 53.3056 22.8196 52.7446 23.2123C52.1837 23.6162 51.5049 23.8181 50.7083 23.8181C50.2595 23.8181 49.8164 23.7452 49.3788 23.5994C48.9412 23.4535 48.5822 23.2516 48.3017 22.9935L49.1432 21.4452C49.3451 21.636 49.5807 21.7874 49.85 21.8996C50.1305 22.0118 50.411 22.0679 50.6915 22.0679C51.0617 22.0679 51.3646 21.9725 51.6002 21.7818C51.8471 21.5911 52.0715 21.2713 52.2734 20.8225L52.4249 20.4691L48.5037 11.4487H50.6915L53.5188 18.0962L56.3629 11.4487H58.3824Z" fill="#475467"/>
<path d="M64.6786 11.3477C65.5537 11.3477 66.3335 11.5385 67.0179 11.9199C67.7135 12.3014 68.2576 12.8399 68.6503 13.5355C69.043 14.2311 69.2393 15.0333 69.2393 15.9421C69.2393 16.8509 69.043 17.6587 68.6503 18.3655C68.2576 19.0611 67.7135 19.5996 67.0179 19.9811C66.3335 20.3626 65.5537 20.5533 64.6786 20.5533C63.4669 20.5533 62.5076 20.1494 61.8008 19.3416V23.7003H59.6972V11.4487H61.6998V12.6267C62.0476 12.2004 62.474 11.8806 62.9789 11.6675C63.495 11.4543 64.0615 11.3477 64.6786 11.3477ZM64.443 18.7526C65.2171 18.7526 65.851 18.4945 66.3447 17.9784C66.8496 17.4623 67.102 16.7835 67.102 15.9421C67.102 15.1006 66.8496 14.4219 66.3447 13.9058C65.851 13.3897 65.2171 13.1316 64.443 13.1316C63.9381 13.1316 63.4837 13.2494 63.0798 13.485C62.6759 13.7094 62.3562 14.0348 62.1206 14.4611C61.885 14.8875 61.7672 15.3811 61.7672 15.9421C61.7672 16.5031 61.885 16.9967 62.1206 17.4231C62.3562 17.8494 62.6759 18.1804 63.0798 18.416C63.4837 18.6404 63.9381 18.7526 64.443 18.7526Z" fill="#475467"/>
<path d="M76.3336 11.3477C77.4667 11.3477 78.3755 11.6787 79.0599 12.3406C79.7443 13.0026 80.0865 13.9843 80.0865 15.2858V20.4355H77.9828V15.555C77.9828 14.7697 77.7977 14.1806 77.4275 13.788C77.0572 13.3841 76.5299 13.1821 75.8455 13.1821C75.0714 13.1821 74.4599 13.4177 74.0112 13.8889C73.5624 14.3489 73.338 15.0165 73.338 15.8916V20.4355H71.2343V7.94823H73.338V12.4921C73.6858 12.1219 74.1121 11.8414 74.617 11.6507C75.1331 11.4487 75.7053 11.3477 76.3336 11.3477Z" fill="#475467"/>
<path d="M91.4558 11.4487V20.4355H89.4531V19.2911C89.1165 19.695 88.6958 20.0091 88.1909 20.2335C87.686 20.4467 87.1419 20.5533 86.5585 20.5533C85.358 20.5533 84.41 20.2223 83.7144 19.5604C83.03 18.8872 82.6878 17.8943 82.6878 16.5816V11.4487H84.7914V16.2955C84.7914 17.1033 84.9709 17.7092 85.33 18.1131C85.7002 18.5057 86.2219 18.7021 86.8951 18.7021C87.6468 18.7021 88.2414 18.4721 88.679 18.0121C89.1277 17.5409 89.3521 16.8677 89.3521 15.9926V11.4487H91.4558Z" fill="#475467"/>
<path d="M96.9869 20.5533C96.2576 20.5533 95.5452 20.4579 94.8496 20.2672C94.154 20.0765 93.5986 19.8352 93.1835 19.5435L93.9913 17.9448C94.3952 18.214 94.8776 18.4328 95.4386 18.6011C96.0108 18.7582 96.5718 18.8367 97.1215 18.8367C98.3781 18.8367 99.0064 18.5057 99.0064 17.8438C99.0064 17.5296 98.8437 17.3109 98.5184 17.1874C98.2042 17.064 97.6937 16.9462 96.9869 16.834C96.2464 16.7218 95.6406 16.5928 95.1694 16.447C94.7094 16.3011 94.3055 16.0487 93.9577 15.6897C93.6211 15.3194 93.4528 14.8089 93.4528 14.1582C93.4528 13.3055 93.8062 12.6267 94.513 12.1219C95.2311 11.6058 96.1959 11.3477 97.4076 11.3477C98.0247 11.3477 98.6418 11.4207 99.2588 11.5665C99.8759 11.7011 100.381 11.8863 100.773 12.1219L99.9657 13.7206C99.2027 13.2719 98.3445 13.0475 97.3908 13.0475C96.7737 13.0475 96.3025 13.1428 95.9772 13.3336C95.663 13.5131 95.5059 13.7543 95.5059 14.0572C95.5059 14.3938 95.6742 14.635 96.0108 14.7809C96.3586 14.9155 96.8915 15.0445 97.6096 15.1679C98.3276 15.2801 98.9166 15.4092 99.3766 15.555C99.8366 15.7009 100.229 15.9477 100.555 16.2955C100.891 16.6433 101.06 17.137 101.06 17.7765C101.06 18.6179 100.695 19.2911 99.9657 19.796C99.2364 20.3008 98.2435 20.5533 96.9869 20.5533Z" fill="#475467"/>
</svg>
