<svg width="114" height="29" viewBox="0 0 114 29" fill="none" xmlns="http://www.w3.org/2000/svg">
<g clip-path="url(#clip0_1_484)">
<path d="M12.9705 2.40418C10.7827 2.40418 9.01562 4.14976 9.01562 6.31095C9.01563 8.45553 10.7827 10.2011 12.9536 10.2177C12.4151 10.2011 11.9944 9.76886 11.9944 9.23686C11.9944 8.70488 12.432 8.25603 12.9873 8.25603C15.3434 8.25603 20.5773 8.25603 22.8829 8.25603C24.5153 8.25603 25.8448 6.94269 25.8448 5.33012C25.8448 3.71751 24.5153 2.40417 22.8829 2.40417L12.9705 2.40418Z" fill="#475467"/>
<path opacity="0.9" d="M8.16213 10.2177C5.97434 10.2177 4.20728 11.9633 4.20728 14.1245C4.20728 16.2691 5.97434 18.0146 8.14529 18.0313C7.60676 18.0146 7.18604 17.5824 7.18604 17.0504C7.18604 16.5184 7.62361 16.0696 8.17897 16.0696C10.535 16.0696 15.7689 16.0696 18.0745 16.0696C19.7069 16.0696 21.0364 14.7562 21.0364 13.1437C21.0364 11.5311 19.7069 10.2177 18.0745 10.2177L8.16213 10.2177Z" fill="#475467"/>
<path opacity="0.8" d="M4.83842 18.0313C2.49435 18.0313 0.601074 19.9111 0.601074 22.2385C0.601074 24.5481 2.49435 26.4279 4.82037 26.4458C4.24338 26.4279 3.79261 25.9625 3.79261 25.3895C3.79261 24.8166 4.26143 24.3332 4.85647 24.3332C7.38081 24.3332 12.9886 24.3332 15.4588 24.3332C17.2079 24.3332 18.6323 22.9189 18.6323 21.1823C18.6323 19.4456 17.2079 18.0312 15.4588 18.0312L4.83842 18.0313Z" fill="#475467"/>
<path d="M31.8431 20.3808V7.75891H39.9572V9.92266H34.2233V12.9339H39.4523V15.0976H34.2233V18.217H40.0654V20.3808H31.8431Z" fill="#475467"/>
<path d="M40.9978 23.987V11.4373H43.2337V12.5192H43.5582C43.7626 12.1706 44.0811 11.864 44.5139 11.5996C44.9466 11.3231 45.5657 11.1848 46.3711 11.1848C47.0924 11.1848 47.7595 11.3652 48.3726 11.7258C48.9856 12.0744 49.4785 12.5913 49.8511 13.2765C50.2238 13.9617 50.4101 14.7911 50.4101 15.7648V16.0533C50.4101 17.027 50.2238 17.8564 49.8511 18.5416C49.4785 19.2268 48.9856 19.7497 48.3726 20.1103C47.7595 20.4589 47.0924 20.6332 46.3711 20.6332C45.8302 20.6332 45.3734 20.5671 45.0007 20.4349C44.6401 20.3147 44.3456 20.1584 44.1172 19.9661C43.9008 19.7617 43.7265 19.5574 43.5943 19.353H43.2697V23.987H40.9978ZM45.6859 18.6498C46.3952 18.6498 46.9782 18.4274 47.435 17.9826C47.9038 17.5258 48.1382 16.8647 48.1382 15.9992V15.8189C48.1382 14.9534 47.9038 14.2982 47.435 13.8535C46.9661 13.3967 46.3831 13.1683 45.6859 13.1683C44.9887 13.1683 44.4057 13.3967 43.9369 13.8535C43.4681 14.2982 43.2337 14.9534 43.2337 15.8189V15.9992C43.2337 16.8647 43.4681 17.5258 43.9369 17.9826C44.4057 18.4274 44.9887 18.6498 45.6859 18.6498Z" fill="#475467"/>
<path d="M51.5947 20.3808V11.4373H53.8666V20.3808H51.5947ZM52.7307 10.3915C52.3219 10.3915 51.9733 10.2592 51.6848 9.99478C51.4084 9.73032 51.2701 9.38172 51.2701 8.94897C51.2701 8.51622 51.4084 8.16762 51.6848 7.90316C51.9733 7.6387 52.3219 7.50647 52.7307 7.50647C53.1514 7.50647 53.5 7.6387 53.7765 7.90316C54.0529 8.16762 54.1912 8.51622 54.1912 8.94897C54.1912 9.38172 54.0529 9.73032 53.7765 9.99478C53.5 10.2592 53.1514 10.3915 52.7307 10.3915Z" fill="#475467"/>
<path d="M59.684 20.6332C58.8185 20.6332 58.0311 20.4529 57.3219 20.0923C56.6247 19.7317 56.0717 19.2088 55.663 18.5236C55.2543 17.8384 55.0499 17.0089 55.0499 16.0353V15.7828C55.0499 14.8091 55.2543 13.9797 55.663 13.2945C56.0717 12.6093 56.6247 12.0864 57.3219 11.7258C58.0311 11.3652 58.8185 11.1848 59.684 11.1848C60.5374 11.1848 61.2707 11.3351 61.8838 11.6356C62.4968 11.9361 62.9897 12.3509 63.3623 12.8798C63.747 13.3967 63.9994 13.9857 64.1196 14.6468L61.9198 15.1157C61.8717 14.755 61.7636 14.4305 61.5953 14.142C61.427 13.8535 61.1866 13.6251 60.874 13.4568C60.5735 13.2885 60.1948 13.2043 59.738 13.2043C59.2813 13.2043 58.8665 13.3065 58.4939 13.5109C58.1333 13.7032 57.8448 13.9977 57.6284 14.3944C57.424 14.7791 57.3219 15.2539 57.3219 15.8189V15.9992C57.3219 16.5642 57.424 17.045 57.6284 17.4417C57.8448 17.8264 58.1333 18.1209 58.4939 18.3252C58.8665 18.5176 59.2813 18.6137 59.738 18.6137C60.4232 18.6137 60.9401 18.4394 61.2887 18.0908C61.6494 17.7302 61.8778 17.2614 61.9739 16.6844L64.1737 17.2073C64.0175 17.8444 63.747 18.4274 63.3623 18.9563C62.9897 19.4732 62.4968 19.8819 61.8838 20.1824C61.2707 20.483 60.5374 20.6332 59.684 20.6332Z" fill="#475467"/>
<path d="M68.5542 20.525C67.857 20.525 67.2439 20.3688 66.715 20.0562C66.1981 19.7317 65.7954 19.2869 65.5069 18.7219C65.2184 18.1569 65.0742 17.5078 65.0742 16.7745V11.4373H67.3461V16.5942C67.3461 17.2674 67.5084 17.7723 67.833 18.1088C68.1695 18.4454 68.6444 18.6137 69.2574 18.6137C69.9546 18.6137 70.4956 18.3853 70.8802 17.9285C71.2649 17.4597 71.4572 16.8106 71.4572 15.9812V11.4373H73.7292V20.3808H71.4933V19.2088H71.1687C71.0245 19.5093 70.754 19.8038 70.3573 20.0923C69.9606 20.3808 69.3596 20.525 68.5542 20.525Z" fill="#475467"/>
<path d="M75.3558 20.3808V11.4373H77.5917V12.447H77.9162C78.0485 12.0864 78.2648 11.8219 78.5653 11.6537C78.8779 11.4854 79.2385 11.4012 79.6472 11.4012H80.7291V13.4207H79.6112C79.0342 13.4207 78.5593 13.577 78.1867 13.8895C77.814 14.1901 77.6277 14.6589 77.6277 15.296V20.3808H75.3558Z" fill="#475467"/>
<path d="M81.6033 20.3808V11.4373H83.8753V20.3808H81.6033ZM82.7393 10.3915C82.3306 10.3915 81.982 10.2592 81.6935 9.99478C81.417 9.73032 81.2788 9.38172 81.2788 8.94897C81.2788 8.51622 81.417 8.16762 81.6935 7.90316C81.982 7.6387 82.3306 7.50647 82.7393 7.50647C83.16 7.50647 83.5086 7.6387 83.7851 7.90316C84.0616 8.16762 84.1998 8.51622 84.1998 8.94897C84.1998 9.38172 84.0616 9.73032 83.7851 9.99478C83.5086 10.2592 83.16 10.3915 82.7393 10.3915Z" fill="#475467"/>
<path d="M89.7467 20.6332C88.8572 20.6332 88.0578 20.4529 87.3485 20.0923C86.6393 19.7317 86.0803 19.2088 85.6716 18.5236C85.2629 17.8384 85.0586 17.0149 85.0586 16.0533V15.7648C85.0586 14.8031 85.2629 13.9797 85.6716 13.2945C86.0803 12.6093 86.6393 12.0864 87.3485 11.7258C88.0578 11.3652 88.8572 11.1848 89.7467 11.1848C90.6362 11.1848 91.4356 11.3652 92.1448 11.7258C92.8541 12.0864 93.413 12.6093 93.8218 13.2945C94.2305 13.9797 94.4348 14.8031 94.4348 15.7648V16.0533C94.4348 17.0149 94.2305 17.8384 93.8218 18.5236C93.413 19.2088 92.8541 19.7317 92.1448 20.0923C91.4356 20.4529 90.6362 20.6332 89.7467 20.6332ZM89.7467 18.6137C90.4439 18.6137 91.0209 18.3913 91.4777 17.9466C91.9345 17.4898 92.1629 16.8406 92.1629 15.9992V15.8189C92.1629 14.9774 91.9345 14.3343 91.4777 13.8895C91.0329 13.4327 90.4559 13.2043 89.7467 13.2043C89.0495 13.2043 88.4725 13.4327 88.0157 13.8895C87.5589 14.3343 87.3305 14.9774 87.3305 15.8189V15.9992C87.3305 16.8406 87.5589 17.4898 88.0157 17.9466C88.4725 18.3913 89.0495 18.6137 89.7467 18.6137Z" fill="#475467"/>
<path d="M99.0383 20.525C98.3411 20.525 97.728 20.3688 97.1991 20.0562C96.6822 19.7317 96.2795 19.2869 95.991 18.7219C95.7025 18.1569 95.5583 17.5078 95.5583 16.7745V11.4373H97.8302V16.5942C97.8302 17.2674 97.9925 17.7723 98.317 18.1088C98.6536 18.4454 99.1284 18.6137 99.7415 18.6137C100.439 18.6137 100.98 18.3853 101.364 17.9285C101.749 17.4597 101.941 16.8106 101.941 15.9812V11.4373H104.213V20.3808H101.977V19.2088H101.653C101.509 19.5093 101.238 19.8038 100.841 20.0923C100.445 20.3808 99.8437 20.525 99.0383 20.525Z" fill="#475467"/>
<path d="M109.554 20.6332C108.388 20.6332 107.433 20.3808 106.687 19.8759C105.942 19.371 105.491 18.6498 105.335 17.7122L107.427 17.1712C107.511 17.5919 107.649 17.9225 107.841 18.1629C108.046 18.4034 108.292 18.5777 108.581 18.6858C108.881 18.782 109.206 18.8301 109.554 18.8301C110.083 18.8301 110.474 18.7399 110.726 18.5596C110.979 18.3673 111.105 18.1329 111.105 17.8564C111.105 17.5799 110.985 17.3696 110.744 17.2253C110.504 17.069 110.119 16.9428 109.59 16.8467L109.085 16.7565C108.46 16.6363 107.889 16.474 107.373 16.2697C106.856 16.0533 106.441 15.7588 106.128 15.3861C105.816 15.0135 105.66 14.5326 105.66 13.9436C105.66 13.0541 105.984 12.3749 106.633 11.9061C107.282 11.4253 108.136 11.1848 109.194 11.1848C110.191 11.1848 111.021 11.4072 111.682 11.852C112.343 12.2968 112.776 12.8798 112.98 13.601L110.871 14.2502C110.774 13.7934 110.576 13.4688 110.276 13.2765C109.987 13.0841 109.626 12.988 109.194 12.988C108.761 12.988 108.43 13.0661 108.202 13.2224C107.974 13.3666 107.859 13.571 107.859 13.8354C107.859 14.1239 107.98 14.3403 108.22 14.4846C108.46 14.6168 108.785 14.719 109.194 14.7911L109.699 14.8813C110.372 15.0015 110.979 15.1637 111.52 15.3681C112.073 15.5604 112.505 15.8429 112.818 16.2156C113.143 16.5762 113.305 17.069 113.305 17.6941C113.305 18.6318 112.962 19.359 112.277 19.8759C111.604 20.3808 110.696 20.6332 109.554 20.6332Z" fill="#475467"/>
</g>
<defs>
<clipPath id="clip0_1_484">
<rect width="113.597" height="28.85" fill="white"/>
</clipPath>
</defs>
</svg>
