<svg width="120" height="29" viewBox="0 0 120 29" fill="none" xmlns="http://www.w3.org/2000/svg">
<path d="M7.11168 2.69587L10.2061 14.2445V1.54769C10.4515 1.49043 10.6995 1.44 10.9499 1.39662V14.2457L14.4304 1.25641C14.6812 1.27912 14.93 1.30883 15.1766 1.34534L11.6681 14.4393L18.6421 2.35994C18.8693 2.46215 19.0931 2.57059 19.3132 2.68504L12.3132 14.8094L22.3066 4.81602C22.4868 4.9864 22.6622 5.16179 22.8326 5.34198L12.8377 15.3369L24.9635 8.33601C25.0779 8.5562 25.1863 8.78 25.2885 9.00722L13.2122 15.9795L26.3026 12.4719C26.3391 12.7185 26.3688 12.9673 26.3914 13.2182L13.4023 16.6986L26.251 16.6986C26.2076 16.949 26.1572 17.197 26.0999 17.4424L13.4003 17.4424L24.9512 20.5374C24.8326 20.7646 24.7076 20.9879 24.5764 21.207L13.2111 18.1617L22.7037 23.6423C22.524 23.8271 22.3389 24.0066 22.1488 24.1807L12.84 18.8063L19.8838 25.8501C19.661 25.9803 19.434 26.1041 19.2032 26.2214L12.3133 19.3315L16.8276 27.1505C16.5805 27.2204 16.3304 27.2833 16.0775 27.3389L11.6685 19.7023L13.7943 27.6357C13.6048 27.6438 13.4143 27.6478 13.2229 27.6478C13.1575 27.6478 13.0923 27.6474 13.0271 27.6464L10.9499 19.8941V27.4532C10.6995 27.4099 10.4515 27.3594 10.2061 27.3022V19.8954L8.37459 26.7308C8.14098 26.6386 7.91063 26.5401 7.68374 26.4353L9.48741 19.7039L6.10156 25.5684C5.89194 25.4341 5.68637 25.2941 5.48505 25.1486L8.84428 19.3303L4.13991 24.0346C3.95972 23.8643 3.78433 23.6889 3.61394 23.5087L8.31684 18.8058L2.50015 22.1641C2.3546 21.9628 2.21459 21.7572 2.08032 21.5476L7.94755 18.1602L1.21284 19.9647C1.10802 19.7379 1.00943 19.5075 0.917306 19.2739L7.75267 17.4424L0.345784 17.4424C0.288511 17.197 0.23807 16.949 0.194673 16.6986L7.75067 16.6986L0.00138005 14.6222C0.000420437 14.5565 -6.10352e-05 14.4908 -6.10352e-05 14.4249C-6.10352e-05 14.234 0.00398667 14.044 0.012001 13.855L7.94647 15.981L0.308647 11.5713C0.364261 11.3185 0.427111 11.0684 0.496968 10.8212L8.31918 15.3374L1.42642 8.44458C1.54368 8.21373 1.66752 7.98678 1.7977 7.76399L8.84437 14.8107L3.46781 5.49819C3.64191 5.30804 3.82149 5.123 4.00631 4.94332L9.48786 14.4376L6.44208 3.07064C6.66124 2.93947 6.88453 2.81446 7.11168 2.69587Z" fill="#475467"/>
<path d="M34.769 20.3808H37.6468V15.3825H43.3856V12.8413H37.6468V10.704H43.7558V8.17963H34.769V20.3808Z" fill="#475467"/>
<path d="M48.6469 13.2115C49.7408 13.2115 50.6159 13.8847 50.6159 15.8201C50.6159 17.7218 49.7745 18.4454 48.6469 18.4454C47.5194 18.4454 46.6779 17.7218 46.6779 15.8201C46.6779 13.8847 47.553 13.2115 48.6469 13.2115ZM48.6469 11.0574C46.1394 11.0574 43.8506 12.5384 43.8506 15.8201C43.8506 19.1018 46.1394 20.5996 48.6469 20.5996C51.1545 20.5996 53.4432 19.1018 53.4432 15.8201C53.4432 12.5384 51.1545 11.0574 48.6469 11.0574Z" fill="#475467"/>
<path d="M58.7753 11.0574C56.0322 11.0574 54.1473 12.9255 54.1473 15.8032C54.1473 18.681 55.7966 20.5996 58.7753 20.5996C60.5929 20.5996 62.7638 19.7413 63.3865 17.0486H60.7948C60.5929 17.9069 59.9702 18.4454 58.9436 18.4454C57.9507 18.4454 56.9746 17.7891 56.9746 15.8201C56.9746 13.8847 57.9507 13.2115 58.9436 13.2115C59.7682 13.2115 60.4246 13.5818 60.677 14.642H63.2687C62.7302 11.9157 60.6602 11.0574 58.7753 11.0574Z" fill="#475467"/>
<path d="M69.9112 14.7262C66.3939 14.9954 63.8864 15.7191 63.8864 17.9405C63.8864 19.5898 65.3 20.5996 67.0166 20.5996C68.3125 20.5996 69.3895 20.2461 70.0627 19.2869L70.0964 20.3808H72.8227C72.688 19.8086 72.6207 18.7483 72.6207 17.7554V16.813L72.6544 14.844C72.7049 12.1008 71.2239 11.0406 68.6154 11.0406C65.9227 11.0406 64.3071 12.5552 64.1725 14.255H66.7642C66.882 13.3798 67.4878 12.9255 68.3798 12.9255C69.3895 12.9255 69.9112 13.2957 69.9112 14.3728V14.7262ZM69.9785 16.5774C69.9785 18.2435 69.1371 18.7147 68.0264 18.7147C67.3027 18.7147 66.7473 18.3276 66.7473 17.7386C66.7473 16.7625 68.0432 16.5437 69.9785 16.3586V16.5774Z" fill="#475467"/>
<path d="M76.8563 8.17963H74.0795V20.3808H76.8563V8.17963Z" fill="#475467"/>
<path d="M78.6268 8.17963V20.3808H81.5046V16.1567H83.3221C86.486 16.1567 88.8589 15.3657 88.8589 12.1513C88.8589 8.95377 86.486 8.17963 83.3221 8.17963H78.6268ZM83.4062 10.603C84.7526 10.603 85.8128 10.8723 85.8128 12.1513C85.8128 13.4303 84.7526 13.7333 83.4062 13.7333H81.5046V10.603H83.4062Z" fill="#475467"/>
<path d="M93.7373 13.2115C94.8312 13.2115 95.7063 13.8847 95.7063 15.8201C95.7063 17.7218 94.8648 18.4454 93.7373 18.4454C92.6097 18.4454 91.7682 17.7218 91.7682 15.8201C91.7682 13.8847 92.6434 13.2115 93.7373 13.2115ZM93.7373 11.0574C91.2297 11.0574 88.9409 12.5384 88.9409 15.8201C88.9409 19.1018 91.2297 20.5996 93.7373 20.5996C96.2448 20.5996 98.5336 19.1018 98.5336 15.8201C98.5336 12.5384 96.2448 11.0574 93.7373 11.0574Z" fill="#475467"/>
<path d="M99.6447 11.3267V20.3808H102.438V11.3267H99.6447ZM99.6447 8.17963V10.4011H102.422V8.17963H99.6447Z" fill="#475467"/>
<path d="M106.867 11.3267H104.091V20.3808H106.867V15.7359C106.867 14.053 107.355 13.2789 108.55 13.2789C109.897 13.2789 109.947 14.3391 109.947 15.6349V20.3808H112.724V14.945C112.724 12.4879 112 11.1247 109.678 11.1247C108.247 11.1247 107.271 11.8484 106.867 12.5216V11.3267Z" fill="#475467"/>
<path d="M114.644 11.3267H113.214V13.2957H114.644V17.8396C114.644 19.9432 115.401 20.3808 117.64 20.3808H119.407V18.3781H118.616C117.69 18.3781 117.421 18.2098 117.421 17.3515V13.2957H119.407V11.3267H117.421V8.85279H114.644V11.3267Z" fill="#475467"/>
</svg>
