<svg width="106" height="29" viewBox="0 0 106 29" fill="none" xmlns="http://www.w3.org/2000/svg">
<path d="M8.88218 11.6901C12.3447 10.0341 15.0546 7.22391 16.6102 3.71118C15.6066 2.65736 14.3018 1.90463 12.8967 1.453L12.144 1.20209C12.0938 1.30245 12.0436 1.453 12.0436 1.55337C10.8393 4.96573 8.38037 7.72573 5.06837 9.28137C2.76 10.3854 1.05382 12.3926 0.250909 14.8014L0 15.5541C0.100364 15.6043 0.250911 15.6545 0.351275 15.6545C1.30473 16.0057 2.25818 16.4574 3.16146 17.0094C4.416 14.7512 6.42327 12.8443 8.88218 11.6901Z" fill="#475467"/>
<path opacity="0.8" d="M23.4345 11.8909C21.5778 14.7011 19.0185 16.9593 15.8571 18.4648C13.2978 19.6691 11.3407 21.9273 10.4374 24.6371L10.1865 25.4902C11.14 26.3433 12.2942 26.9957 13.5487 27.3971L14.3014 27.648C14.3516 27.5477 14.4018 27.3971 14.4018 27.2968C15.6062 23.8844 18.0651 21.1244 21.3771 19.5688C23.6854 18.4648 25.4418 16.4575 26.1945 14.0488L26.4454 13.296C25.3916 12.9949 24.388 12.4931 23.4345 11.8909Z" fill="#475467"/>
<path opacity="0.9" d="M8.17932 22.8806C9.43387 19.8697 11.7422 17.4108 14.703 16.0057C17.4128 14.701 19.671 12.6937 21.2266 10.2348C20.0724 9.1308 19.119 7.87624 18.4164 6.37079C16.5597 9.78315 13.6491 12.5432 10.0862 14.2493C8.02878 15.2028 6.37278 16.8588 5.36914 18.8661C6.47314 19.9199 7.37641 21.2246 8.07896 22.6799C8.07896 22.6799 8.12914 22.7803 8.17932 22.8806Z" fill="#475467"/>
<path d="M32.4258 20.4354H40.8824V18.0913H35.1485V7.81352H32.4258V20.4354Z" fill="#475467"/>
<path d="M49.7176 11.3476H47.1932V16.3243C47.1932 17.4783 46.4179 18.3438 45.318 18.3438C44.2902 18.3438 43.569 17.5504 43.569 16.4505V11.3476H41.0626V17.0095C41.0626 19.0831 42.3969 20.5796 44.4345 20.5796C45.6786 20.5796 46.6884 20.0387 47.1932 19.1732V20.4354H49.7176V11.3476Z" fill="#475467"/>
<path d="M50.6554 20.4354H53.1798V15.2785C53.1798 14.1064 53.8469 13.3311 54.8927 13.3311C55.8664 13.3311 56.4795 14.1064 56.4795 15.2785V20.4354H59.0038V15.2785C59.0038 14.1064 59.671 13.3311 60.7168 13.3311C61.6905 13.3311 62.3216 14.1064 62.3216 15.2785V20.4354H64.8279V14.4851C64.8279 12.6639 63.5477 11.2034 61.5643 11.2034C60.1038 11.2034 58.9678 11.9787 58.535 12.8623C58.1023 11.7804 57.1827 11.2034 55.7582 11.2034C54.5321 11.2034 53.6666 11.7984 53.1798 12.6279V11.3476H50.6554V20.4354Z" fill="#475467"/>
<path d="M65.6879 7.3988V10.0494H68.3566V7.3988H65.6879ZM65.7601 20.4354H68.2844V11.3476H65.7601V20.4354Z" fill="#475467"/>
<path d="M69.2254 20.4354H71.7498V15.4588C71.7498 14.2867 72.5252 13.4393 73.6251 13.4393C74.6709 13.4393 75.3741 14.2326 75.3741 15.3326V20.4354H77.8985V14.7736C77.8985 12.682 76.5642 11.2034 74.5086 11.2034C73.2645 11.2034 72.2547 11.7263 71.7498 12.6098V11.3476H69.2254V20.4354Z" fill="#475467"/>
<path d="M83.1637 20.5796C85.9586 20.5796 87.9601 18.5962 87.9601 15.8915C87.9601 13.1868 85.9586 11.2034 83.1637 11.2034C80.3689 11.2034 78.3674 13.1868 78.3674 15.8915C78.3674 18.5962 80.3689 20.5796 83.1637 20.5796ZM83.1637 18.4159C81.8114 18.4159 80.8918 17.3881 80.8918 15.8915C80.8918 14.3769 81.8114 13.3491 83.1637 13.3491C84.5161 13.3491 85.4357 14.3769 85.4357 15.8915C85.4357 17.3881 84.5161 18.4159 83.1637 18.4159Z" fill="#475467"/>
<path d="M97.1025 11.3476H94.5781V16.3243C94.5781 17.4783 93.8027 18.3438 92.7028 18.3438C91.6751 18.3438 90.9538 17.5504 90.9538 16.4505V11.3476H88.4475V17.0095C88.4475 19.0831 89.7818 20.5796 91.8193 20.5796C93.0635 20.5796 94.0732 20.0387 94.5781 19.1732V20.4354H97.1025V11.3476Z" fill="#475467"/>
<path d="M101.358 20.5796C103.486 20.5796 104.892 19.4437 104.892 17.7127C104.892 13.6016 99.9155 15.7112 99.9155 13.854C99.9155 13.277 100.402 12.9705 101.106 12.9705C101.791 12.9705 102.494 13.3852 102.602 14.1605H104.784C104.694 12.3754 103.215 11.2034 101.033 11.2034C99.1762 11.2034 97.7878 12.3394 97.7878 13.9441C97.7878 17.7668 102.674 15.9456 102.674 17.8028C102.674 18.3077 102.133 18.6864 101.358 18.6864C100.42 18.6864 99.7893 18.1815 99.6991 17.3701H97.5354C97.6255 19.3355 99.1401 20.5796 101.358 20.5796Z" fill="#475467"/>
</svg>
