<svg width="122" height="29" viewBox="0 0 122 29" fill="none" xmlns="http://www.w3.org/2000/svg">
<path fill-rule="evenodd" clip-rule="evenodd" d="M0 14.425C8.40473 14.425 13.2229 9.60681 13.2229 1.20209C13.2229 9.60681 18.0411 14.425 26.4458 14.425C18.0411 14.425 13.2229 19.2432 13.2229 27.6479C13.2229 19.2432 8.40473 14.425 0 14.425Z" fill="#475467"/>
<path d="M31.6688 20.3809L36.2848 7.75898H38.8813L43.4973 20.3809H41.0451L40.0353 17.4598H35.1128L34.085 20.3809H31.6688ZM35.7439 15.6567H39.4042L37.565 10.4096L35.7439 15.6567Z" fill="#475467"/>
<path d="M48.1266 20.5972C47.213 20.5972 46.4076 20.3989 45.7104 20.0022C45.0132 19.6055 44.4602 19.0526 44.0515 18.3433C43.6548 17.6341 43.4565 16.8227 43.4565 15.9091C43.4565 14.9955 43.6548 14.1841 44.0515 13.4749C44.4602 12.7657 45.0132 12.2127 45.7104 11.816C46.4076 11.4193 47.213 11.221 48.1266 11.221C49.2685 11.221 50.2302 11.5215 51.0116 12.1225C51.7929 12.7116 52.2918 13.529 52.5082 14.5748H50.0739C49.9537 14.142 49.7133 13.8055 49.3527 13.565C49.0041 13.3126 48.5894 13.1864 48.1085 13.1864C47.4714 13.1864 46.9305 13.4268 46.4857 13.9076C46.041 14.3885 45.8186 15.0556 45.8186 15.9091C45.8186 16.7626 46.041 17.4297 46.4857 17.9106C46.9305 18.3914 47.4714 18.6318 48.1085 18.6318C48.5894 18.6318 49.0041 18.5116 49.3527 18.2712C49.7133 18.0308 49.9537 17.6882 50.0739 17.2434H52.5082C52.2918 18.2532 51.7929 19.0646 51.0116 19.6776C50.2302 20.2907 49.2685 20.5972 48.1266 20.5972Z" fill="#475467"/>
<path d="M53.6551 20.3809V11.4374H55.6926L55.891 12.6454C56.1795 12.2127 56.5582 11.8701 57.027 11.6177C57.5078 11.3532 58.0608 11.221 58.6858 11.221C60.0682 11.221 61.0479 11.7559 61.6249 12.8258C61.9495 12.3329 62.3822 11.9422 62.9232 11.6537C63.4761 11.3652 64.0772 11.221 64.7263 11.221C65.8923 11.221 66.7879 11.5696 67.413 12.2668C68.038 12.964 68.3506 13.9858 68.3506 15.3321V20.3809H66.0426V15.5485C66.0426 14.7791 65.8923 14.1901 65.5918 13.7814C65.3033 13.3727 64.8525 13.1684 64.2395 13.1684C63.6144 13.1684 63.1095 13.3967 62.7248 13.8535C62.3522 14.3103 62.1659 14.9474 62.1659 15.7649V20.3809H59.8579V15.5485C59.8579 14.7791 59.7076 14.1901 59.4071 13.7814C59.1066 13.3727 58.6438 13.1684 58.0187 13.1684C57.4056 13.1684 56.9068 13.3967 56.5221 13.8535C56.1494 14.3103 55.9631 14.9474 55.9631 15.7649V20.3809H53.6551Z" fill="#475467"/>
<path d="M73.9858 20.5972C73.0842 20.5972 72.2848 20.4049 71.5876 20.0202C70.8904 19.6356 70.3435 19.0946 69.9468 18.3974C69.5501 17.7002 69.3517 16.8948 69.3517 15.9812C69.3517 15.0556 69.5441 14.2322 69.9287 13.5109C70.3254 12.7897 70.8664 12.2307 71.5516 11.834C72.2488 11.4253 73.0662 11.221 74.0038 11.221C74.8813 11.221 75.6567 11.4133 76.3298 11.798C77.003 12.1826 77.5259 12.7116 77.8986 13.3847C78.2832 14.0459 78.4756 14.7852 78.4756 15.6026C78.4756 15.7348 78.4695 15.873 78.4575 16.0173C78.4575 16.1615 78.4515 16.3118 78.4395 16.4681H71.6417C71.6898 17.1653 71.9302 17.7122 72.363 18.1089C72.8077 18.5056 73.3427 18.7039 73.9677 18.7039C74.4366 18.7039 74.8272 18.6018 75.1398 18.3974C75.4643 18.181 75.7048 17.9046 75.861 17.568H78.2051C78.0368 18.133 77.7543 18.6499 77.3576 19.1187C76.973 19.5755 76.4921 19.9361 75.9151 20.2005C75.3501 20.465 74.707 20.5972 73.9858 20.5972ZM74.0038 13.0962C73.4388 13.0962 72.94 13.2585 72.5072 13.5831C72.0745 13.8956 71.798 14.3764 71.6778 15.0256H76.1315C76.0954 14.4366 75.8791 13.9677 75.4824 13.6191C75.0857 13.2705 74.5928 13.0962 74.0038 13.0962Z" fill="#475467"/>
<path d="M88.6801 20.5972C87.4059 20.5972 86.312 20.3268 85.3984 19.7858C84.4849 19.2329 83.7816 18.4695 83.2888 17.4959C82.7959 16.5101 82.5495 15.3742 82.5495 14.0879C82.5495 12.8017 82.7959 11.6657 83.2888 10.68C83.7816 9.69433 84.4849 8.925 85.3984 8.37204C86.312 7.81908 87.4059 7.5426 88.6801 7.5426C90.1947 7.5426 91.4329 7.92126 92.3946 8.67857C93.3682 9.42386 93.9753 10.4757 94.2157 11.834H91.6733C91.517 11.1489 91.1805 10.6139 90.6636 10.2293C90.1587 9.83257 89.4855 9.63423 88.6441 9.63423C87.478 9.63423 86.5645 10.0309 85.9033 10.8243C85.2422 11.6177 84.9116 12.7056 84.9116 14.0879C84.9116 15.4703 85.2422 16.5582 85.9033 17.3516C86.5645 18.133 87.478 18.5236 88.6441 18.5236C89.4855 18.5236 90.1587 18.3433 90.6636 17.9827C91.1805 17.6101 91.517 17.0992 91.6733 16.45H94.2157C93.9753 17.7483 93.3682 18.7641 92.3946 19.4973C91.4329 20.2306 90.1947 20.5972 88.6801 20.5972Z" fill="#475467"/>
<path d="M99.5945 20.5972C98.729 20.5972 97.9477 20.3989 97.2505 20.0022C96.5653 19.6055 96.0183 19.0586 95.6096 18.3614C95.2129 17.6521 95.0146 16.8347 95.0146 15.9091C95.0146 14.9835 95.2189 14.1721 95.6276 13.4749C96.0364 12.7657 96.5833 12.2127 97.2685 11.816C97.9657 11.4193 98.7471 11.221 99.6126 11.221C100.466 11.221 101.235 11.4193 101.921 11.816C102.618 12.2127 103.165 12.7657 103.561 13.4749C103.97 14.1721 104.174 14.9835 104.174 15.9091C104.174 16.8347 103.97 17.6521 103.561 18.3614C103.165 19.0586 102.618 19.6055 101.921 20.0022C101.223 20.3989 100.448 20.5972 99.5945 20.5972ZM99.5945 18.5958C100.196 18.5958 100.718 18.3734 101.163 17.9286C101.608 17.4718 101.83 16.7986 101.83 15.9091C101.83 15.0196 101.608 14.3524 101.163 13.9076C100.718 13.4508 100.202 13.2224 99.6126 13.2224C98.9995 13.2224 98.4706 13.4508 98.0258 13.9076C97.5931 14.3524 97.3767 15.0196 97.3767 15.9091C97.3767 16.7986 97.5931 17.4718 98.0258 17.9286C98.4706 18.3734 98.9935 18.5958 99.5945 18.5958Z" fill="#475467"/>
<path d="M105.336 20.3809V11.4374H107.392L107.608 13.1143C107.933 12.5373 108.372 12.0805 108.925 11.7439C109.49 11.3953 110.151 11.221 110.908 11.221V13.6552H110.259C109.754 13.6552 109.303 13.7333 108.907 13.8896C108.51 14.0459 108.197 14.3163 107.969 14.701C107.753 15.0857 107.644 15.6206 107.644 16.3058V20.3809H105.336Z" fill="#475467"/>
<path d="M111.584 24.3477V11.4374H113.64L113.892 12.7176C114.181 12.3209 114.559 11.9723 115.028 11.6718C115.509 11.3712 116.128 11.221 116.885 11.221C117.727 11.221 118.478 11.4253 119.139 11.834C119.8 12.2427 120.323 12.8017 120.708 13.5109C121.093 14.2202 121.285 15.0256 121.285 15.9271C121.285 16.8287 121.093 17.6341 120.708 18.3433C120.323 19.0405 119.8 19.5935 119.139 20.0022C118.478 20.3989 117.727 20.5972 116.885 20.5972C116.212 20.5972 115.623 20.471 115.118 20.2186C114.613 19.9661 114.205 19.6115 113.892 19.1547V24.3477H111.584ZM116.398 18.5777C117.132 18.5777 117.739 18.3313 118.22 17.8384C118.7 17.3456 118.941 16.7085 118.941 15.9271C118.941 15.1458 118.7 14.5027 118.22 13.9978C117.739 13.4929 117.132 13.2405 116.398 13.2405C115.653 13.2405 115.04 13.4929 114.559 13.9978C114.09 14.4906 113.856 15.1277 113.856 15.9091C113.856 16.6905 114.09 17.3336 114.559 17.8384C115.04 18.3313 115.653 18.5777 116.398 18.5777Z" fill="#475467"/>
</svg>
