<svg width="100" height="29" viewBox="0 0 100 29" fill="none" xmlns="http://www.w3.org/2000/svg">
<circle cx="13.2229" cy="14.5753" r="12.3214" stroke="#475467" stroke-width="1.80313"/>
<path d="M18.1104 19.4628C15.6225 21.9507 12.8039 23.5749 10.2937 24.2204C7.76085 24.8717 5.71933 24.4967 4.51039 23.2878C3.30145 22.0789 2.92653 20.0373 3.57784 17.5045C4.22331 14.9943 5.84745 12.1757 8.3354 9.68777C10.8233 7.19982 13.6419 5.57568 16.1521 4.93021C18.685 4.2789 20.7265 4.65383 21.9354 5.86277C23.1444 7.07171 23.5193 9.11322 22.868 11.6461C22.2225 14.1562 20.5984 16.9748 18.1104 19.4628Z" stroke="#475467" stroke-width="1.80313"/>
<path d="M18.1103 9.6878C20.5983 12.1758 22.2224 14.9944 22.8679 17.5045C23.5192 20.0374 23.1443 22.0789 21.9353 23.2878C20.7264 24.4968 18.6849 24.8717 16.152 24.2204C13.6418 23.5749 10.8232 21.9508 8.33529 19.4628C5.84734 16.9749 4.2232 14.1563 3.57773 11.6461C2.92643 9.11325 3.30135 7.07174 4.51029 5.8628C5.71923 4.65386 7.76074 4.27894 10.2936 4.93024C12.8038 5.57571 15.6224 7.19985 18.1103 9.6878Z" stroke="#475467" stroke-width="1.80313"/>
<path d="M37.7751 20.5798C40.606 20.5798 42.5174 19.1012 42.5174 16.7391C42.5174 11.7445 35.8819 13.8721 35.8819 11.2396C35.8819 10.5003 36.549 9.99543 37.6129 9.99543C38.821 9.99543 39.5783 10.6446 39.6684 11.6363H42.2469C42.1748 9.23811 40.3356 7.6694 37.6129 7.6694C35.0524 7.6694 33.2493 9.14796 33.2493 11.2396C33.2493 16.1982 39.7946 14.3049 39.7946 16.7752C39.7946 17.7308 38.9832 18.2357 37.7751 18.2357C36.4408 18.2357 35.5934 17.4243 35.4852 16.1441H32.8887C32.9969 18.8307 34.9082 20.5798 37.7751 20.5798Z" fill="#475467"/>
<path d="M43.1306 24.1139H45.6369V19.6241C46.1238 20.2372 47.0073 20.5798 48.0351 20.5798C50.6496 20.5798 52.4167 18.7226 52.4167 15.8916C52.4167 13.0607 50.7938 11.2035 48.2514 11.2035C47.0794 11.2035 46.1778 11.6363 45.6369 12.3395V11.3478H43.1306V24.1139ZM47.7285 18.416C46.3762 18.416 45.4927 17.4063 45.4927 15.8916C45.4927 14.359 46.3762 13.3492 47.7285 13.3492C49.0448 13.3492 49.9464 14.359 49.9464 15.8916C49.9464 17.4063 49.0448 18.416 47.7285 18.416Z" fill="#475467"/>
<path d="M53.0231 20.4355H55.5294V15.4589C55.5294 14.2869 56.3048 13.4394 57.4047 13.4394C58.4505 13.4394 59.1718 14.2328 59.1718 15.3327V20.4355H61.6781V14.7737C61.6781 12.6821 60.3438 11.2035 58.3063 11.2035C57.0441 11.2035 56.0523 11.7264 55.5294 12.61V7.39893H53.0231V20.4355Z" fill="#475467"/>
<path d="M68.6894 17.3522C68.4911 18.1275 67.8239 18.5242 66.8142 18.5242C65.552 18.5242 64.7406 17.7308 64.5603 16.4506H71.0876C71.1056 16.2523 71.1237 15.9818 71.1237 15.6392C71.1237 13.5656 69.8434 11.2035 66.6339 11.2035C63.5505 11.2035 62.1441 13.5656 62.1441 15.8736C62.1441 18.1636 63.7308 20.5798 66.8142 20.5798C69.0501 20.5798 70.7811 19.3176 71.1417 17.3522H68.6894ZM66.6339 13.0427C67.842 13.0427 68.5452 13.8541 68.6173 14.8639H64.5963C64.8127 13.6017 65.4979 13.0427 66.6339 13.0427Z" fill="#475467"/>
<path d="M77.6969 13.4394V11.3478H76.4037C75.3038 11.3478 74.6186 11.7264 74.1318 12.8624V11.3478H71.6074V20.4355H74.1318V16.0179C74.1318 14.4672 74.6908 13.4394 75.9349 13.4394H77.6969Z" fill="#475467"/>
<path d="M86.3519 11.3478H83.8275V16.3244C83.8275 17.4784 83.0522 18.3439 81.9523 18.3439C80.9245 18.3439 80.2032 17.5505 80.2032 16.4506V11.3478H77.6969V17.0096C77.6969 19.0832 79.0312 20.5798 81.0687 20.5798C82.3129 20.5798 83.3226 20.0388 83.8275 19.1733V20.4355H86.3519V11.3478Z" fill="#475467"/>
<path d="M87.4339 20.4355H89.9403V7.39893H87.4339V20.4355Z" fill="#475467"/>
<path d="M97.0957 17.3522C96.8974 18.1275 96.2302 18.5242 95.2205 18.5242C93.9583 18.5242 93.1469 17.7308 92.9665 16.4506H99.4939C99.5119 16.2523 99.5299 15.9818 99.5299 15.6392C99.5299 13.5656 98.2497 11.2035 95.0401 11.2035C91.9568 11.2035 90.5504 13.5656 90.5504 15.8736C90.5504 18.1636 92.1371 20.5798 95.2205 20.5798C97.4563 20.5798 99.1873 19.3176 99.548 17.3522H97.0957ZM95.0401 13.0427C96.2482 13.0427 96.9515 13.8541 97.0236 14.8639H93.0026C93.219 13.6017 93.9042 13.0427 95.0401 13.0427Z" fill="#475467"/>
</svg>
