<svg width="88" height="29" viewBox="0 0 88 29" fill="none" xmlns="http://www.w3.org/2000/svg">
<path opacity="0.7" d="M7.98034 13.4141C8.47456 11.5699 10.3702 9.67431 12.2143 9.1801L23.7117 6.09894C25.5558 5.60472 26.6502 6.69907 26.1559 8.54322L23.0748 20.0405C22.5806 21.8847 20.6849 23.7803 18.8408 24.2745L7.34347 27.3557C5.49931 27.8499 4.40497 26.7556 4.89918 24.9114L7.98034 13.4141Z" fill="#475467"/>
<path d="M3.37076 8.80478C3.86498 6.96062 5.7606 5.065 7.60476 4.57078L19.1021 1.48962C20.9462 0.995405 22.0406 2.08975 21.5464 3.93391L18.4652 15.4312C17.971 17.2754 16.0754 19.171 14.2312 19.6652L2.73389 22.7464C0.889733 23.2406 -0.204614 22.1462 0.289602 20.3021L3.37076 8.80478Z" fill="#475467"/>
<path d="M36.9785 18.1594H40.7483V20.3808H34.1007V8.56677H36.9785V18.1594Z" fill="#475467"/>
<path d="M41.2121 15.6687C41.2121 14.7038 41.3916 13.8567 41.7507 13.1275C42.1209 12.3982 42.6202 11.8372 43.2485 11.4446C43.8767 11.0519 44.578 10.8555 45.3521 10.8555C46.014 10.8555 46.5918 10.9902 47.0855 11.2594C47.5904 11.5287 47.9774 11.8821 48.2467 12.3197V10.9902H51.1245V20.3808H48.2467V19.0513C47.9662 19.4889 47.5735 19.8423 47.0687 20.1116C46.575 20.3808 45.9972 20.5155 45.3353 20.5155C44.5723 20.5155 43.8767 20.3191 43.2485 19.9265C42.6202 19.5226 42.1209 18.956 41.7507 18.2267C41.3916 17.4862 41.2121 16.6336 41.2121 15.6687ZM48.2467 15.6855C48.2467 14.9675 48.0448 14.4009 47.6409 13.9858C47.2482 13.5706 46.7657 13.3631 46.1936 13.3631C45.6214 13.3631 45.1333 13.5706 44.7294 13.9858C44.3367 14.3897 44.1404 14.9506 44.1404 15.6687C44.1404 16.3867 44.3367 16.9589 44.7294 17.3853C45.1333 17.8004 45.6214 18.0079 46.1936 18.0079C46.7657 18.0079 47.2482 17.8004 47.6409 17.3853C48.0448 16.9701 48.2467 16.4036 48.2467 15.6855Z" fill="#475467"/>
<path d="M62.4625 10.9902L56.5723 24.8406H53.4757L55.6299 20.0611L51.8096 10.9902H55.024L57.195 16.8636L59.3491 10.9902H62.4625Z" fill="#475467"/>
<path d="M72.0187 15.534C72.0187 15.8033 72.0019 16.0838 71.9682 16.3755H65.4553C65.5002 16.9589 65.6853 17.4077 66.0107 17.7218C66.3473 18.0248 66.7568 18.1762 67.2392 18.1762C67.9573 18.1762 68.4565 17.8733 68.737 17.2675H71.7999C71.6428 17.8845 71.3568 18.4399 70.9416 18.9335C70.5377 19.4272 70.0272 19.8143 69.4102 20.0948C68.7931 20.3752 68.1031 20.5155 67.3402 20.5155C66.4202 20.5155 65.6012 20.3191 64.8831 19.9265C64.1651 19.5338 63.6041 18.9728 63.2002 18.2435C62.7963 17.5143 62.5944 16.6616 62.5944 15.6855C62.5944 14.7094 62.7907 13.8567 63.1834 13.1275C63.5873 12.3982 64.1483 11.8372 64.8663 11.4446C65.5843 11.0519 66.409 10.8555 67.3402 10.8555C68.249 10.8555 69.0568 11.0463 69.7636 11.4277C70.4704 11.8092 71.0202 12.3533 71.4128 13.0602C71.8167 13.767 72.0187 14.5916 72.0187 15.534ZM69.0736 14.7767C69.0736 14.2831 68.9053 13.8904 68.5687 13.5987C68.2321 13.307 67.8114 13.1611 67.3065 13.1611C66.8241 13.1611 66.4146 13.3014 66.078 13.5819C65.7526 13.8624 65.5507 14.2606 65.4722 14.7767H69.0736Z" fill="#475467"/>
<path d="M76.0781 12.5553C76.4147 12.0392 76.8354 11.6353 77.3403 11.3436C77.8451 11.0407 78.4061 10.8892 79.0232 10.8892V13.9353H78.2322C77.5142 13.9353 76.9756 14.0923 76.6166 14.4065C76.2576 14.7094 76.0781 15.248 76.0781 16.0221V20.3808H73.2003V10.9902H76.0781V12.5553Z" fill="#475467"/>
<path d="M83.8823 20.5155C83.0633 20.5155 82.3341 20.3752 81.6945 20.0948C81.055 19.8143 80.5502 19.4328 80.1799 18.9504C79.8097 18.4567 79.6021 17.907 79.5572 17.3011H82.4014C82.435 17.6265 82.5865 17.8901 82.8558 18.0921C83.125 18.294 83.456 18.395 83.8487 18.395C84.2077 18.395 84.4826 18.3277 84.6733 18.1931C84.8753 18.0472 84.9762 17.8621 84.9762 17.6377C84.9762 17.3684 84.836 17.1721 84.5555 17.0487C84.275 16.914 83.8206 16.7682 83.1923 16.6111C82.5192 16.454 81.9582 16.2914 81.5094 16.1231C81.0606 15.9436 80.6736 15.6687 80.3482 15.2984C80.0229 14.917 79.8602 14.4065 79.8602 13.767C79.8602 13.2285 80.006 12.7404 80.2977 12.3028C80.6007 11.8541 81.0382 11.5007 81.6104 11.2426C82.1938 10.9846 82.8838 10.8555 83.6804 10.8555C84.8584 10.8555 85.784 11.1472 86.4572 11.7307C87.1416 12.3141 87.5343 13.0882 87.6352 14.0531H84.9762C84.9314 13.7277 84.7855 13.4697 84.5387 13.2789C84.3031 13.0882 83.9889 12.9928 83.5962 12.9928C83.2597 12.9928 83.0016 13.0602 82.8221 13.1948C82.6426 13.3182 82.5528 13.4921 82.5528 13.7165C82.5528 13.9858 82.6931 14.1877 82.9736 14.3223C83.2653 14.457 83.714 14.5916 84.3199 14.7262C85.0155 14.9058 85.5821 15.0853 86.0196 15.2648C86.4572 15.4331 86.8387 15.7136 87.164 16.1062C87.5006 16.4877 87.6745 17.0038 87.6857 17.6545C87.6857 18.2043 87.5287 18.6979 87.2145 19.1355C86.9116 19.5618 86.4684 19.8984 85.885 20.1452C85.3128 20.3921 84.6453 20.5155 83.8823 20.5155Z" fill="#475467"/>
</svg>
