<svg width="36" height="38" viewBox="0 0 36 38" fill="none" xmlns="http://www.w3.org/2000/svg">
<rect width="35.7333" height="37.8658" rx="13.3333" fill="url(#paint0_linear_69_84)"/>
<rect x="0.8" y="0.8" width="34.1333" height="36.2658" rx="12.5333" stroke="white" stroke-opacity="0.3" stroke-width="1.6"/>
<g filter="url(#filter0_d_69_84)">
<path d="M20.3659 15.8867H24.0326L19.5326 11.3867V15.0534C19.5326 15.5534 19.8659 15.8867 20.3659 15.8867ZM20.3659 17.5534C18.9492 17.5534 17.8659 16.47 17.8659 15.0534V10.8867H13.6992C12.2826 10.8867 11.1992 11.97 11.1992 13.3867V25.0534C11.1992 26.47 12.2826 27.5534 13.6992 27.5534H22.0326C23.4492 27.5534 24.5326 26.47 24.5326 25.0534V17.5534H20.3659ZM15.3659 15.8867H16.1992C16.6992 15.8867 17.0326 16.22 17.0326 16.72C17.0326 17.22 16.6992 17.5534 16.1992 17.5534H15.3659C14.8659 17.5534 14.5326 17.22 14.5326 16.72C14.5326 16.22 14.8659 15.8867 15.3659 15.8867ZM20.3659 24.22H15.3659C14.8659 24.22 14.5326 23.8867 14.5326 23.3867C14.5326 22.8867 14.8659 22.5534 15.3659 22.5534H20.3659C20.8659 22.5534 21.1992 22.8867 21.1992 23.3867C21.1992 23.8867 20.8659 24.22 20.3659 24.22ZM20.3659 20.8867H15.3659C14.8659 20.8867 14.5326 20.5534 14.5326 20.0534C14.5326 19.5534 14.8659 19.22 15.3659 19.22H20.3659C20.8659 19.22 21.1992 19.5534 21.1992 20.0534C21.1992 20.5534 20.8659 20.8867 20.3659 20.8867Z" fill="white"/>
</g>
<defs>
<filter id="filter0_d_69_84" x="10.6659" y="10.8867" width="14.4" height="17.7333" filterUnits="userSpaceOnUse" color-interpolation-filters="sRGB">
<feFlood flood-opacity="0" result="BackgroundImageFix"/>
<feColorMatrix in="SourceAlpha" type="matrix" values="0 0 0 0 0 0 0 0 0 0 0 0 0 0 0 0 0 0 127 0" result="hardAlpha"/>
<feOffset dy="0.533333"/>
<feGaussianBlur stdDeviation="0.266667"/>
<feComposite in2="hardAlpha" operator="out"/>
<feColorMatrix type="matrix" values="0 0 0 0 0 0 0 0 0 0 0 0 0 0 0 0 0 0 0.15 0"/>
<feBlend mode="normal" in2="BackgroundImageFix" result="effect1_dropShadow_69_84"/>
<feBlend mode="normal" in="SourceGraphic" in2="effect1_dropShadow_69_84" result="shape"/>
</filter>
<linearGradient id="paint0_linear_69_84" x1="17.8667" y1="0" x2="17.8667" y2="37.8658" gradientUnits="userSpaceOnUse">
<stop stop-color="#70F2DB"/>
<stop offset="1" stop-color="#23BBC5"/>
</linearGradient>
</defs>
</svg>
