<svg width="60" height="60" viewBox="0 0 60 60" fill="none" xmlns="http://www.w3.org/2000/svg">
<rect width="60" height="60" rx="20" fill="url(#paint0_linear_1_352)"/>
<path d="M42.6663 12.0833C43.1957 12.0833 43.6677 12.4168 43.8445 12.9159L44.9537 16.046L48.0838 17.1551C48.5828 17.3319 48.9163 17.8039 48.9163 18.3333C48.9163 18.8628 48.5828 19.3347 48.0838 19.5116L44.9537 20.6207L43.8445 23.7508C43.6677 24.2498 43.1957 24.5833 42.6663 24.5833C42.137 24.5833 41.665 24.2498 41.4882 23.7508L40.379 20.6207L37.2488 19.5116C36.7498 19.3347 36.4163 18.8628 36.4163 18.3333C36.4163 17.8039 36.7498 17.3319 37.2488 17.1551L40.379 16.046L41.4882 12.9159C41.665 12.4168 42.137 12.0833 42.6663 12.0833ZM19.333 35.4167C19.8624 35.4167 20.3344 35.7502 20.5112 36.2492L21.6203 39.3793L24.7505 40.4885C25.2495 40.6653 25.583 41.1373 25.583 41.6667C25.583 42.196 25.2495 42.668 24.7505 42.8448L21.6203 43.954L20.5112 47.0842C20.3344 47.5832 19.8624 47.9167 19.333 47.9167C18.8036 47.9167 18.3316 47.5832 18.1548 47.0842L17.0457 43.954L13.9155 42.8448C13.4165 42.668 13.083 42.196 13.083 41.6667C13.083 41.1373 13.4165 40.6653 13.9155 40.4885L17.0457 39.3793L18.1548 36.2492C18.3316 35.7502 18.8036 35.4167 19.333 35.4167Z" fill="white"/>
<path d="M28.5 17.0833H29.3333C35.0863 17.0833 39.75 21.747 39.75 27.5V31.6667C39.75 35.1185 36.9518 37.9167 33.5 37.9167C30.0482 37.9167 27.25 35.1185 27.25 31.6667V28.3333C27.25 27.643 27.8097 27.0833 28.5 27.0833C29.1903 27.0833 29.75 27.643 29.75 28.3333V31.6667C29.75 33.7377 31.429 35.4167 33.5 35.4167C35.571 35.4167 37.25 33.7377 37.25 31.6667V27.5C37.25 23.1278 33.7057 19.5833 29.3333 19.5833H28.5C23.6675 19.5833 19.75 23.5009 19.75 28.3333V33.3333C19.75 34.0237 19.1903 34.5833 18.5 34.5833C17.8097 34.5833 17.25 34.0237 17.25 33.3333V28.3333C17.25 22.1201 22.2868 17.0833 28.5 17.0833Z" fill="white"/>
<path d="M33.5 42.9167H32.6667C26.9137 42.9167 22.25 38.253 22.25 32.5V28.3333C22.25 24.8815 25.0482 22.0833 28.5 22.0833C31.9518 22.0833 34.75 24.8815 34.75 28.3333V31.6667C34.75 32.357 34.1903 32.9167 33.5 32.9167C32.8097 32.9167 32.25 32.357 32.25 31.6667V28.3333C32.25 26.2622 30.571 24.5833 28.5 24.5833C26.4289 24.5833 24.75 26.2622 24.75 28.3333V32.5C24.75 36.8723 28.2943 40.4167 32.6667 40.4167H33.5C38.3325 40.4167 42.25 36.4992 42.25 31.6667V26.6667C42.25 25.9763 42.8097 25.4167 43.5 25.4167C44.1903 25.4167 44.75 25.9763 44.75 26.6667V31.6667C44.75 37.8798 39.7132 42.9167 33.5 42.9167Z" fill="white"/>
<defs>
<linearGradient id="paint0_linear_1_352" x1="30" y1="0" x2="30" y2="60" gradientUnits="userSpaceOnUse">
<stop stop-color="#E95B4A"/>
<stop offset="1" stop-color="#B164C4"/>
</linearGradient>
</defs>
</svg>
